<svg width="60" height="23" viewBox="0 0 60 23" fill="none" xmlns="http://www.w3.org/2000/svg">
<g filter="url(#filter0_d)">
<path d="M12.7176 0.634277H6.49258C4.83603 0.634277 4 1.42695 4 2.99701V11.4C4 11.6058 4.11214 11.7326 4.35374 11.7326H6.23548C6.46067 11.7326 6.60563 11.6058 6.60563 11.4V11.081C6.60563 10.3027 6.9384 9.87851 7.76531 9.79673H12.7176C14.5347 9.79673 15.3552 9.02023 15.3552 7.32345V3.10755C15.3552 1.41077 14.5347 0.634277 12.7176 0.634277ZM12.7523 6.60987C12.7523 7.53016 12.5408 7.71979 11.4303 7.71979H8.79279C7.68325 7.71979 6.97487 8.08467 6.60472 8.79825V3.61533C6.60472 2.90175 6.78159 2.71122 7.66593 2.71122H11.4303C12.5408 2.71122 12.7523 2.90175 12.7523 3.82114V6.60987Z" fill="#D4C2FF"/>
<path d="M21.3222 5.28007C19.8908 5.28007 19.2791 5.99365 19.2791 7.19883V11.4318C19.2791 11.6223 19.1824 11.7329 18.9572 11.7329H17.2524C17.0272 11.7329 16.915 11.6223 16.915 11.4318V3.69473C16.915 3.5042 17.0272 3.39276 17.2524 3.39276H18.6837C18.8934 3.39276 19.0056 3.5042 19.0056 3.69473V4.94305C19.2791 3.91311 20.0677 3.38916 21.4671 3.38916H22.0461C22.2548 3.38916 22.367 3.5006 22.367 3.69113V4.979C22.367 5.1848 22.2548 5.28007 22.0461 5.28007H21.3222Z" fill="#D4C2FF"/>
<path d="M32.4196 9.46538C32.4196 11.0354 31.7121 11.7329 30.0236 11.7329H25.8417C24.1687 11.7329 23.4448 11.0354 23.4448 9.46538V5.662C23.4448 4.09284 24.1687 3.39453 25.8417 3.39453H30.0236C31.7121 3.39453 32.4196 4.09284 32.4196 5.662V9.46538ZM30.0555 6.26325C30.0555 5.43822 29.8951 5.28005 28.8977 5.28005H26.9831C25.9702 5.28005 25.8089 5.43822 25.8089 6.26325V8.86324C25.8089 9.68737 25.9702 9.84644 26.9831 9.84644H28.8977C29.8951 9.84644 30.0555 9.68737 30.0555 8.86324V6.26325Z" fill="#D4C2FF"/>
<path d="M34.7999 5.27998H33.9949C33.7852 5.27998 33.6731 5.18472 33.6731 4.97891V3.69464C33.6731 3.50411 33.7852 3.39267 33.9949 3.39267H34.799V2.36273C34.8 0.792671 35.636 0 37.2925 0H39.2709C39.4961 0 39.5927 0.111441 39.5927 0.301071V1.58534C39.5927 1.79205 39.4961 1.88641 39.2709 1.88641H38.2261C37.3408 1.88641 37.164 2.07694 37.164 2.79053V3.39267H39.2709C39.4961 3.39267 39.5927 3.50411 39.5927 3.69464V4.97891C39.5927 5.18472 39.4961 5.27998 39.2709 5.27998H37.164V11.4317C37.164 11.6222 37.0518 11.7328 36.8266 11.7328H35.1218C34.8966 11.7328 34.7999 11.6222 34.7999 11.4317V5.27998Z" fill="#D4C2FF"/>
<path d="M41.3622 5.27998H40.559C40.3502 5.27998 40.238 5.18472 40.238 4.97891V3.69464C40.238 3.50411 40.3502 3.39267 40.559 3.39267H41.364V2.36273C41.3622 0.792671 42.2 0 43.8547 0H45.8331C46.0583 0 46.1549 0.111441 46.1549 0.301071V1.58534C46.1549 1.79205 46.0583 1.88641 45.8331 1.88641H44.7874C43.9031 1.88641 43.7262 2.07694 43.7262 2.79053V3.39267H45.8331C46.0583 3.39267 46.1549 3.50411 46.1549 3.69464V4.97891C46.1549 5.18472 46.0583 5.27998 45.8331 5.27998H43.7262V11.4317C43.7262 11.6222 43.6131 11.7328 43.3879 11.7328H41.6831C41.4579 11.7328 41.3622 11.6222 41.3622 11.4317V5.27998Z" fill="#D4C2FF"/>
<path d="M53.3437 14.9672H49.8373C48.2619 14.9672 47.5863 14.3651 47.5863 12.8741V12.7159C47.5816 12.6734 47.5867 12.6303 47.6013 12.59C47.6158 12.5496 47.6393 12.513 47.6702 12.4829C47.701 12.4528 47.7383 12.4299 47.7794 12.4159C47.8204 12.4019 47.8641 12.3973 47.9072 12.4023H49.5483C49.7735 12.4023 49.8856 12.5137 49.8856 12.7195V12.7986C49.8856 13.1158 50.0634 13.2426 50.4171 13.2426H52.4438C53.4084 13.2426 53.65 13.0053 53.65 12.1964V9.69531C53.2799 10.4089 52.5724 10.7738 51.4619 10.7738H49.8209C48.1479 10.7738 47.4076 10.0764 47.4076 8.50631V3.69456C47.4054 3.65301 47.4124 3.61149 47.428 3.57284C47.4436 3.53419 47.4675 3.49932 47.4981 3.47064C47.5287 3.44196 47.5652 3.42013 47.6051 3.40666C47.645 3.39319 47.6875 3.38839 47.7294 3.39259H49.4507C49.6595 3.39259 49.7726 3.50403 49.7726 3.69456V7.90866C49.7726 8.73278 49.9494 8.89186 50.9468 8.89186H52.1694C53.2306 8.89186 53.6491 8.46317 53.6491 7.59141V3.69456C53.6491 3.50403 53.7612 3.39259 53.9709 3.39259H55.6931C55.7343 3.38867 55.7758 3.3938 55.8148 3.4076C55.8537 3.4214 55.889 3.44354 55.9182 3.47241C55.9474 3.50129 55.9698 3.53619 55.9837 3.5746C55.9976 3.61301 56.0026 3.65398 55.9985 3.69456V12.4463C55.9976 14.1098 55.0969 14.9672 53.3437 14.9672Z" fill="#D4C2FF"/>
</g>
<defs>
<filter id="filter0_d" x="0" y="0" width="60" height="23" filterUnits="userSpaceOnUse" color-interpolation-filters="sRGB">
<feFlood flood-opacity="0" result="BackgroundImageFix"/>
<feColorMatrix in="SourceAlpha" type="matrix" values="0 0 0 0 0 0 0 0 0 0 0 0 0 0 0 0 0 0 127 0"/>
<feOffset dy="4"/>
<feGaussianBlur stdDeviation="2"/>
<feColorMatrix type="matrix" values="0 0 0 0 0 0 0 0 0 0 0 0 0 0 0 0 0 0 0.25 0"/>
<feBlend mode="normal" in2="BackgroundImageFix" result="effect1_dropShadow"/>
<feBlend mode="normal" in="SourceGraphic" in2="effect1_dropShadow" result="shape"/>
</filter>
</defs>
</svg>
